# xmcd
#
# Track frame offsets:
#	150
#	30022
#	45315
#	61172
#	72402
#	91062
#	105402
#	117717
#	138122
#	160337
#	178530
#	190502
#	201430
#	215130
#
# Disc length: 3157 seconds
#
# Revision: 0
# Processed by: cddbd v1.5.2PL0 Copyright (c) Steve Scherf et al.
# Submitted via: dBpowerAMP V4.0
#
DISCID=b90c530e
DTITLE=Coutry Vol 1 - Special Hits
DYEAR=1900
DGENRE=
TTITLE0=Sutters Mill
TTITLE1=Achy Breaky Heart
TTITLE2=Tacke It Easy
TTITLE3=It`s So Easy
TTITLE4=Stumblin`in
TTITLE5=When You Walk In The Room
TTITLE6=Walk The Line
TTITLE7=Back Home Again
TTITLE8=Lay Down Sally
TTITLE9=America
TTITLE10=Before The Next Teardrops Fall
TTITLE11=Hey Tonight
TTITLE12=No Gettin`Over Me
TTITLE13=El Paso
EXTD=Mastered In England Produced By Jim and A, A. Rabl
EXTT0=
EXTT1=
EXTT2=
EXTT3=
EXTT4=
EXTT5=
EXTT6=
EXTT7=
EXTT8=
EXTT9=
EXTT10=
EXTT11=
EXTT12=
EXTT13=
PLAYORDER=
